<svg width="143" height="38" viewBox="0 0 143 38" fill="none" xmlns="http://www.w3.org/2000/svg">
<path d="M28.8 2.728L16.56 37H12.24L0 2.728H4.512L12.24 24.712C12.592 25.64 12.896 26.536 13.152 27.4C13.408 28.264 13.632 29.096 13.824 29.896C14.048 30.664 14.24 31.432 14.4 32.2C14.56 31.432 14.736 30.648 14.928 29.848C15.152 29.048 15.392 28.216 15.648 27.352C15.936 26.488 16.24 25.576 16.56 24.616L24.24 2.728H28.8ZM37.0853 11.272V37H32.8613V11.272H37.0853ZM35.0213 1.624C35.6613 1.624 36.2213 1.848 36.7013 2.296C37.2133 2.712 37.4693 3.384 37.4693 4.312C37.4693 5.208 37.2133 5.88 36.7013 6.328C36.2213 6.776 35.6613 7 35.0213 7C34.3173 7 33.7253 6.776 33.2453 6.328C32.7653 5.88 32.5253 5.208 32.5253 4.312C32.5253 3.384 32.7653 2.712 33.2453 2.296C33.7253 1.848 34.3173 1.624 35.0213 1.624ZM53.8282 34.024C54.4683 34.024 55.1243 33.976 55.7963 33.88C56.4683 33.752 57.0123 33.624 57.4283 33.496V36.712C56.9803 36.936 56.3403 37.112 55.5083 37.24C54.6763 37.4 53.8763 37.48 53.1083 37.48C51.7643 37.48 50.5163 37.256 49.3643 36.808C48.2443 36.328 47.3323 35.512 46.6283 34.36C45.9243 33.208 45.5723 31.592 45.5723 29.512V14.536H41.9243V12.52L45.6203 10.84L47.3003 5.368H49.7963V11.272H57.2363V14.536H49.7963V29.416C49.7963 30.984 50.1643 32.152 50.9003 32.92C51.6683 33.656 52.6443 34.024 53.8282 34.024ZM84.948 24.088C84.948 26.232 84.66 28.136 84.084 29.8C83.54 31.432 82.74 32.824 81.684 33.976C80.66 35.128 79.396 36.008 77.892 36.616C76.42 37.192 74.772 37.48 72.948 37.48C71.252 37.48 69.684 37.192 68.244 36.616C66.804 36.008 65.556 35.128 64.5 33.976C63.444 32.824 62.612 31.432 62.004 29.8C61.428 28.136 61.14 26.232 61.14 24.088C61.14 21.24 61.62 18.84 62.58 16.888C63.54 14.904 64.916 13.4 66.708 12.376C68.5 11.32 70.628 10.792 73.092 10.792C75.428 10.792 77.476 11.32 79.236 12.376C81.028 13.4 82.42 14.904 83.412 16.888C84.436 18.84 84.948 21.24 84.948 24.088ZM65.508 24.088C65.508 26.104 65.764 27.864 66.276 29.368C66.82 30.84 67.652 31.976 68.772 32.776C69.892 33.576 71.316 33.976 73.044 33.976C74.772 33.976 76.196 33.576 77.316 32.776C78.436 31.976 79.252 30.84 79.764 29.368C80.308 27.864 80.58 26.104 80.58 24.088C80.58 22.04 80.308 20.296 79.764 18.856C79.22 17.416 78.388 16.312 77.268 15.544C76.18 14.744 74.756 14.344 72.996 14.344C70.372 14.344 68.468 15.208 67.284 16.936C66.1 18.664 65.508 21.048 65.508 24.088ZM80.148 0.711998C79.86 1.16 79.444 1.704 78.9 2.344C78.356 2.984 77.748 3.656 77.076 4.36C76.436 5.032 75.78 5.688 75.108 6.328C74.468 6.936 73.86 7.464 73.284 7.912H70.5V7.336C70.98 6.728 71.492 6.008 72.036 5.176C72.612 4.344 73.172 3.496 73.716 2.632C74.26 1.736 74.708 0.935999 75.06 0.231998H80.148V0.711998ZM103.643 10.792C104.123 10.792 104.635 10.824 105.179 10.888C105.755 10.92 106.251 10.984 106.667 11.08L106.139 14.968C105.723 14.872 105.259 14.792 104.747 14.728C104.267 14.664 103.803 14.632 103.355 14.632C102.363 14.632 101.419 14.84 100.523 15.256C99.6265 15.672 98.8265 16.264 98.1225 17.032C97.4185 17.768 96.8585 18.664 96.4425 19.72C96.0585 20.776 95.8665 21.96 95.8665 23.272V37H91.6425V11.272H95.0985L95.5785 15.976H95.7705C96.3145 15.016 96.9705 14.152 97.7385 13.384C98.5065 12.584 99.3865 11.96 100.379 11.512C101.371 11.032 102.459 10.792 103.643 10.792ZM115.695 11.272V37H111.471V11.272H115.695ZM113.631 1.624C114.271 1.624 114.831 1.848 115.311 2.296C115.823 2.712 116.079 3.384 116.079 4.312C116.079 5.208 115.823 5.88 115.311 6.328C114.831 6.776 114.271 7 113.631 7C112.927 7 112.335 6.776 111.855 6.328C111.375 5.88 111.135 5.208 111.135 4.312C111.135 3.384 111.375 2.712 111.855 2.296C112.335 1.848 112.927 1.624 113.631 1.624ZM133.59 10.84C136.726 10.84 139.046 11.528 140.55 12.904C142.054 14.28 142.806 16.472 142.806 19.48V37H139.734L138.918 33.352H138.726C137.99 34.28 137.222 35.064 136.422 35.704C135.654 36.312 134.758 36.76 133.734 37.048C132.742 37.336 131.526 37.48 130.086 37.48C128.55 37.48 127.158 37.208 125.91 36.664C124.694 36.12 123.734 35.288 123.03 34.168C122.326 33.016 121.974 31.576 121.974 29.848C121.974 27.288 122.982 25.32 124.998 23.944C127.014 22.536 130.118 21.768 134.31 21.64L138.678 21.496V19.96C138.678 17.816 138.214 16.328 137.286 15.496C136.358 14.664 135.046 14.248 133.35 14.248C132.006 14.248 130.726 14.456 129.51 14.872C128.294 15.256 127.158 15.704 126.102 16.216L124.806 13.048C125.926 12.44 127.254 11.928 128.79 11.512C130.326 11.064 131.926 10.84 133.59 10.84ZM134.838 24.568C131.638 24.696 129.414 25.208 128.166 26.104C126.95 27 126.342 28.264 126.342 29.896C126.342 31.336 126.774 32.392 127.638 33.064C128.534 33.736 129.67 34.072 131.046 34.072C133.222 34.072 135.03 33.48 136.47 32.296C137.91 31.08 138.63 29.224 138.63 26.728V24.424L134.838 24.568Z" fill="black"/>
</svg>
